<svg width="565" height="565" viewBox="0 0 565 565" fill="none" xmlns="http://www.w3.org/2000/svg">
<path fill-rule="evenodd" clip-rule="evenodd" d="M315.327 288.345L557.693 297.063L315.327 284.789L557.108 267.888L314.743 279.578L553.601 238.712L314.158 277.824L547.172 210.073L313.574 274.317L537.869 182.066L312.405 270.81L525.644 155.229L310.651 267.888L510.496 130.096L308.362 264.966L493.01 106.766L306.024 262.043L472.602 85.1397L303.686 259.705L450.489 65.9004L300.764 257.367L426.622 49.5349L297.841 255.614L400.369 35.5073L294.919 254.445L373.581 24.4022L292.045 253.276L345.038 15.6836L287.954 252.107L316.496 9.83881L284.447 251.522L287.369 9.83881L280.94 251.522L257.658 9.83881L277.482 252.107L228.532 13.9302L273.975 252.691L200.574 20.8953L270.468 253.86L172.616 31.416L267.546 255.029L146.363 44.2746L264.088 256.783L121.912 60.0556L262.334 259.121L99.2147 78.7104L258.827 261.459L78.2221 99.1673L256.489 263.797L59.5673 121.913L254.151 267.888L43.2505 146.462L252.398 269.641L30.4406 172.715L251.229 273.148L19.9686 200.185L250.06 276.655L12.419 228.776L249.524 279.578L7.74318 257.952L248.94 282.597L6.57422 286.543H248.94L8.32767 316.351L249.524 290.05L13.0035 345.527L250.06 293.556L21.1376 373.533L251.229 297.063L32.194 400.955L252.982 300.57L45.5884 427.257L254.736 303.493L62.4897 451.221L257.074 306.415L81.1445 473.967L259.412 308.753L102.088 494.375L262.334 311.091L125.419 511.909L264.672 312.844L150.454 527.642L268.13 314.598L177.292 539.916L271.053 316.351L204.665 549.852L274.56 316.936L233.207 556.866L277.482 317.52L262.334 560.957L281.525 318.105L292.045 560.957L284.447 318.105L321.172 558.035L288.538 317.52L349.714 552.775L292.045 316.351L377.672 544.007L295.504 315.182L404.461 532.318L298.426 313.38L430.081 517.754L301.348 311.675L453.996 500.804L304.271 309.337L476.109 480.981L306.609 307L495.932 459.355L308.898 304.077L512.834 435.44L310.651 301.155L527.982 410.307L312.405 297.063L539.622 383.469L313.574 294.725L548.341 355.463L314.743 291.803L554.77 326.239L315.327 288.345Z" fill="#96C8F4"/>
</svg>
