<svg id="Layer_1" data-name="Layer 1" xmlns="http://www.w3.org/2000/svg" viewBox="0 0 116 116"><defs><style>.cls-1{fill:#0d0f21;fill-rule:evenodd;}</style></defs><polygon class="cls-1" points="51.78 0.03 55.2 45.37 39.85 2.48 52.73 46.14 28.83 7.43 50.27 47.53 18.95 14.53 48.33 49.34 10.9 23.58 46.95 51.45 4.82 34.04 45.83 53.86 1.23 45.58 45.53 56.35 -0.14 57.68 45.51 58.86 1.29 69.82 45.83 61.56 5.11 81.36 46.96 63.95 11.06 91.75 48.36 66.12 19.07 100.78 50.39 67.76 28.87 107.94 52.69 69.3 40.07 112.73 55.12 70.17 51.82 115.29 57.67 70.19 63.86 115.27 60.39 69.94 75.75 112.78 62.82 69.23 86.73 107.83 65.27 67.81 96.59 100.67 67.24 66.08 104.62 91.61 68.78 64.03 110.57 81.17 69.86 61.56 114.52 69.75 70.21 58.88 115.76 57.63 70.21 56.39 114.52 45.6 69.73 53.86 110.92 34.04 68.68 51.43 104.74 23.64 67.24 49.29 96.71 14.59 65.33 47.51 86.86 7.5 62.88 46.03 75.81 2.64 60.46 45.27 63.84 0.15 57.7 45.22 51.78 0.03"/></svg>