<svg id="Layer_1" data-name="Layer 1" xmlns="http://www.w3.org/2000/svg" viewBox="0 0 116 116"><defs><style>.cls-1{fill:#0d0f21;}</style></defs><rect class="cls-1" x="57.8" y="57.91" height="0.01" transform="translate(-19.92 83.5) rotate(-63.28)"/><path class="cls-1" d="M59.28,59.25l-1.15-1.13,1,1.23Z"/><polygon class="cls-1" points="58.13 58.12 58.12 58.1 58.12 58.11 58.13 58.12"/><polygon class="cls-1" points="57.89 57.88 57.89 57.88 57.89 57.88 57.89 57.88"/><path class="cls-1" d="M58.25,57.76l1.15-.91-.07-.08L100,19c-1.1-1.18-2.26-2.33-3.46-3.42L59.15,56.72l-1,1.15Z"/><path class="cls-1" d="M58.26,57.9l55.46-13.34q-.57-2.4-1.35-4.71l-53.87,18-.15,0Z"/><path class="cls-1" d="M59.77,58.27a.36.36,0,0,0,0-.1l55.32,4.66c.13-1.6.2-3.22.2-4.84h-57l.37-.06,1.15-.19-1.14.19,56.55-3.72c-.11-1.63-.29-3.25-.53-4.84L59.77,57.68s0-.07,0-.11l-1.19.3-.37.06h0l0,0h0l.17-.06.1,0,1.2-.42a1.17,1.17,0,0,1-.05-.11l51-22q-1-2.25-2.13-4.4l-50,26.88-.25.12.36-.24,1-.53a.25.25,0,0,0,0-.07L106,26.67c-.89-1.36-1.84-2.68-2.83-4L58.5,57.63l-.34.22.09-.09-.14.12h0l1-1.15.06-.07-.11-.09-.91,1.2-.07.08.16-.25L92.83,12.46c-1.29-1-2.63-1.92-4-2.8L59,56.46l-.11-.06-.59,1.15v0l-.12.24-.06.11h0l0,0h0v0h0l.08-.1.11-.22-.16.24.06-.14L84.61,7.21q-2.16-1.14-4.43-2.08l-21.5,51.2-.12,0,17-52.86c-1.54-.5-3.12-.93-4.72-1.3L58.12,57.58l0,.15.07-.53.22-1-.08,0,7.78-55C64.46,1,62.84.84,61.21.75L58.07,57.19l.13-1-.13,1-.07.47v0h0v-.06l0-.19h0L56.37.69c-1.62,0-3.24.16-4.84.34l6.23,55.18h-.1l.23,1.11,0,.41,0-.17L46.7,1.78C45.1,2.11,43.51,2.49,42,3L57.48,56.27l-.12,0-20-51.79c-1.53.6-3,1.25-4.48,2l25,51.17,0,.15-.2-.35.15.31.09.12h0v0h0l0,0-.06-.12-.16-.32-.52-1-.08,0L28.53,8.82q-2.09,1.26-4.07,2.68l33.19,46,.21.34-.12-.14.15.21h0l-.25-.16L56.53,57l1.11.76L13.83,21.46c-1,1.25-2,2.54-2.94,3.88L56.51,57l-.07.11,1.1.61.27.15.11.06h0l0,0,0,0-.1,0-.21-.1h0l-1.21-.55,1.2.54L8.28,29.46Q7.07,31.58,6,33.81L56.37,57.24a1.12,1.12,0,0,0,0,.13l-52.16-19Q3.32,40.63,2.67,43L57.79,57.91l-.13,0-1.35-.48h0l1.26.44.24.09h0l-.46-.08-1.09-.28a.19.19,0,0,0,0,.08L1.6,47.78c-.29,1.59-.51,3.21-.66,4.83l56.19,5.27-.91-.16.92.16.6.09h-.23l-1.3-.11a.31.31,0,0,0,0,.09L.69,57.46V58c0,1.44.05,2.88.16,4.31l55.36-4.15v.07l.95-.14h0l.51,0-.4.1-55.86,9c.26,1.62.59,3.23,1,4.8l53.87-13.5a.2.2,0,0,0,0,.11l1.4-.46h.08l.09,0h0l0,0h0L3.8,76.63c.53,1.55,1.13,3.08,1.78,4.56L57.8,58.06h0l-.21.11-1.26.56a.54.54,0,0,0,0,.11L7.75,85.57c.79,1.43,1.63,2.83,2.53,4.17L57.52,58.27l-1.09.59,1.1-.59h0l.27-.15.11-.06h0l0,0,0,0,0,0-.11.06-.19.14-1.1.72a.86.86,0,0,0,.07.1L13.16,93.68c1,1.28,2.07,2.5,3.19,3.68L56.69,59.22l.09.09,1.1-1.2h0l-.14.17L19.83,100.75q1.82,1.62,3.77,3.09l33.34-44.4.07.05.64-1,.19-.29,0-.05h0l0-.06h0l0,0v0l-.05.06h0l0,.05-.19.28.2-.26-.17.33L27.62,106.6c1.37.86,2.79,1.66,4.24,2.41L57.2,59.6l.09,0h0l.51-1.24.12-.24v0L36.31,111.06c1.51.61,3,1.17,4.61,1.65l16.54-53,.13,0L45.66,114c1.58.35,3.19.63,4.81.84l7.41-56.2.09-.36,0,.34,0-.31,0,.31-.17,1.18h.11l-2.57,55.47c.89,0,1.78.06,2.68.06.72,0,1.44,0,2.15,0L58.09,59.78h.08l-.12-1.08,0-.41.11.54h0L65,114.88c1.62-.2,3.23-.46,4.82-.79L58.4,59.74l.09,0-.35-1.21-.07-.32,16.49,54.69q2.37-.7,4.63-1.61L58.66,59.66l.12-.06,24.87,49.65q2.2-1.09,4.27-2.36L58.23,58.4l.58,1.19-.58-1.19-.11-.21h0l0-.09h0l0,0h0v0h0v0h0l0,.07-.06-.06,0,.09h0l.16.21L59,59.51l.1-.06L92,104.16q2-1.44,3.79-3L58.23,58.27l-.12-.17h0l.08.07L99.28,97.75Q101,96,102.5,94.11l-43.09-35,.06-.08-1-.7-.32-.22,0,0h0l.13.08.36.21h0l.94.54-.94-.54L105.41,90.2q1.36-2,2.57-4.15L59.58,58.84a.59.59,0,0,0,0-.08l-1.1-.51-.35-.2h0l.08,0h0l1.43.53-1.4-.52,51.91,23.59q1-2.22,1.84-4.54L59.69,58.59a.93.93,0,0,0,0-.13l53.73,14c.41-1.58.76-3.17,1-4.79l-56-9.56L58.26,58l.4,0ZM57.57,58l.15,0h0Zm-.44.78-.1.1-.35.32L57,58.9l.1-.1.67-.63.08-.06Zm1-.89-.07,0h0l0,0,.13-.07Z"/><path class="cls-1" d="M56.92,56.55l-.09.07L20.64,14.51q-1.84,1.59-3.55,3.33L57.53,57.53l.34.33L56.8,56.64h0l1.08,1.22-.15-.2h0Z"/><polygon class="cls-1" points="57.89 57.87 57.89 57.88 57.89 57.87 57.89 57.87"/></svg>