<svg id="Layer_1" data-name="Layer 1" xmlns="http://www.w3.org/2000/svg" viewBox="0 0 116 116"><defs><style>.cls-1{fill:#0d0f21;fill-rule:evenodd;}</style></defs><polygon class="cls-1" points="64.74 59.2 114.5 60.99 64.74 58.47 114.38 55 64.62 57.4 113.66 49.01 64.5 57.04 112.34 43.13 64.38 56.32 110.43 37.38 64.14 55.6 107.92 31.87 63.78 55 104.81 26.71 63.31 54.4 101.22 21.92 62.83 53.8 97.03 17.48 62.35 53.32 92.49 13.53 61.75 52.84 87.59 10.17 61.15 52.48 82.2 7.29 60.55 52.24 76.7 5.01 59.96 52 70.84 3.22 59.12 51.76 64.98 2.02 58.4 51.64 59 2.02 57.68 51.64 52.9 2.02 56.97 51.76 46.92 2.86 56.25 51.88 41.18 4.29 55.53 52.12 35.44 6.45 54.93 52.36 30.05 9.09 54.22 52.72 25.03 12.33 53.86 53.2 20.37 16.16 53.14 53.68 16.06 20.36 52.66 54.16 12.23 25.03 52.18 55 8.88 30.07 51.82 55.36 6.25 35.46 51.58 56.08 4.1 41.1 51.34 56.8 2.55 46.97 51.23 57.4 1.59 52.96 51.11 58.02 1.35 58.83 51.11 58.83 1.71 64.95 51.23 59.55 2.67 70.94 51.34 60.27 4.34 76.69 51.58 60.99 6.61 82.32 51.94 61.71 9.36 87.72 52.3 62.31 12.83 92.64 52.78 62.91 16.66 97.31 53.26 63.39 20.96 101.5 53.86 63.87 25.75 105.1 54.34 64.23 30.89 108.33 55.05 64.59 36.4 110.85 55.65 64.95 42.02 112.89 56.37 65.07 47.88 114.33 56.97 65.19 53.86 115.17 57.8 65.31 59.96 115.17 58.4 65.31 65.94 114.57 59.24 65.19 71.8 113.49 59.96 64.95 77.54 111.69 60.67 64.71 83.04 109.29 61.27 64.34 88.3 106.3 61.87 63.99 93.21 102.82 62.47 63.51 97.75 98.75 62.95 63.03 101.82 94.31 63.42 62.43 105.29 89.4 63.78 61.83 108.4 84.24 64.14 60.99 110.79 78.73 64.38 60.51 112.58 72.98 64.62 59.91 113.9 66.98 64.74 59.2"/></svg>